<svg xmlns="http://www.w3.org/2000/svg" viewBox="0 0 949.61 891"><g id="Layer_2" data-name="Layer 2"><g id="Draw_black" data-name="Draw black"><path d="M801.61,374.5s17-100-51,0c-60.77,89.36-60.79,89.3-157,232" style="fill:none;stroke:#000;stroke-linecap:round;stroke-linejoin:round;stroke-width:33px"/><path d="M61.11,141l513-13a10.54,10.54,0,0,0,1.77-.2c8-1.54,73-8.89-78.76,203.17-161,225-300,431-300,431l53.09-84.68a69.91,69.91,0,0,0-14.56-90.92C200.22,557,136.69,525,27,523.07a10.59,10.59,0,0,1-10.13-7.56C12.58,499.84,41,465,378.11,465c435,0,555-2,555-2" style="fill:none;stroke:#000;stroke-linecap:round;stroke-linejoin:round;stroke-width:33px"/><path d="M893.61,16.5s-544,784-561,858" style="fill:none;stroke:#000;stroke-linecap:round;stroke-linejoin:round;stroke-width:33px"/><path d="M744.61,505.5l-87.3,37.92a10.76,10.76,0,0,0-4.71,15.76l14.63,22.32a55.89,55.89,0,0,0,50.65,25.1c28.9-2,67.32-10.29,78.73-39.1" style="fill:none;stroke:#000;stroke-linecap:round;stroke-linejoin:round;stroke-width:33px"/></g></g></svg>